<svg width="24" height="24" viewBox="0 0 24 24" fill="none" xmlns="http://www.w3.org/2000/svg">
<rect x="0.3" y="0.3" width="23.4" height="23.4" rx="5.7" stroke="#A3A3A3" stroke-width="0.6"/>
<path d="M7.62387 12.1742C7.38956 11.9399 7.00966 11.9399 6.77535 12.1742C6.54103 12.4085 6.54103 12.7884 6.77535 13.0227L9.77535 16.0227C10.0097 16.257 10.3896 16.257 10.6239 16.0227L17.2239 9.4227C17.4582 9.18839 17.4582 8.80849 17.2239 8.57417C16.9896 8.33986 16.6097 8.33986 16.3753 8.57417L10.1996 14.7499L7.62387 12.1742Z" fill="#656565"/>
<mask id="mask0_56_31279" style="mask-type:luminance" maskUnits="userSpaceOnUse" x="6" y="8" width="12" height="9">
<path d="M7.62387 12.1742C7.38956 11.9399 7.00966 11.9399 6.77535 12.1742C6.54103 12.4085 6.54103 12.7884 6.77535 13.0227L9.77535 16.0227C10.0097 16.257 10.3896 16.257 10.6239 16.0227L17.2239 9.4227C17.4582 9.18839 17.4582 8.80849 17.2239 8.57417C16.9896 8.33986 16.6097 8.33986 16.3753 8.57417L10.1996 14.7499L7.62387 12.1742Z" fill="white"/>
</mask>
<g mask="url(#mask0_56_31279)">
</g>
</svg>
