<svg width="10" height="10" viewBox="0 0 16 16" fill="none" xmlns="http://www.w3.org/2000/svg">
<path d="M0.593898 5.03224C0.57229 5.03219 0.550698 5.03104 0.529206 5.0288C0.451675 5.02033 0.376574 4.99666 0.308194 4.95917C0.239814 4.92168 0.179494 4.87109 0.130679 4.8103C0.0818649 4.7495 0.0455123 4.67969 0.0236981 4.60485C0.00188395 4.53001 -0.00496453 4.45161 0.00354391 4.37412C0.0416716 4.02305 0.0876123 3.68696 0.144491 3.34494V3.33932C0.419198 1.79164 1.79336 0.418247 3.3419 0.14463H3.34784C3.68974 0.0865338 4.02664 0.0406187 4.3776 0.00344942C4.53418 -0.0134913 4.69107 0.0324249 4.81377 0.131097C4.93646 0.229769 5.01492 0.373114 5.03187 0.529598C5.04882 0.686082 5.00288 0.842887 4.90415 0.965517C4.80542 1.08815 4.662 1.16656 4.50542 1.1835C4.18434 1.2182 3.86429 1.26194 3.54567 1.31468C3.03563 1.40464 2.52435 1.68513 2.10557 2.10367C1.68679 2.52222 1.40646 3.03322 1.31551 3.54297C1.2627 3.86063 1.21894 4.17453 1.18425 4.50125C1.16882 4.64699 1.09997 4.78187 0.990972 4.87991C0.881975 4.97794 0.740536 5.03221 0.593898 5.03224ZM15.4056 5.03724C15.2593 5.03709 15.1182 4.98298 15.0094 4.88528C14.9005 4.78758 14.8316 4.65316 14.8158 4.50781C14.7805 4.18047 14.7377 3.86656 14.6849 3.5489C14.5949 3.03884 14.3136 2.52784 13.8945 2.10929C13.4754 1.69075 12.9645 1.40901 12.4544 1.31968C12.1358 1.26664 11.8158 1.22289 11.4947 1.18849C11.3381 1.17155 11.1947 1.09314 11.0959 0.970514C10.9972 0.847885 10.9513 0.69108 10.9682 0.534596C10.9852 0.378112 11.0636 0.234767 11.1863 0.136095C11.309 0.0374225 11.4659 -0.00849372 11.6225 0.00844698C11.9735 0.046241 12.31 0.0924684 12.6523 0.149316H12.6582C14.207 0.423869 15.5812 1.79726 15.8547 3.34556V3.3515C15.9115 3.69289 15.9578 4.02961 15.9956 4.38225C16.0119 4.53823 15.9658 4.69432 15.8673 4.81641C15.7688 4.9385 15.6259 5.01666 15.4699 5.0338C15.4486 5.03616 15.4271 5.03731 15.4056 5.03724ZM11.5578 16C11.406 15.9997 11.26 15.9412 11.15 15.8367C11.0399 15.7321 10.9741 15.5894 10.9661 15.4378C10.9581 15.2863 11.0085 15.1374 11.1069 15.0219C11.2053 14.9063 11.3443 14.8328 11.4953 14.8165C11.8231 14.7809 12.1372 14.7381 12.4547 14.6853C12.9651 14.5944 13.4764 14.3143 13.8952 13.8954C14.3139 13.4765 14.5949 12.9659 14.6849 12.4561C14.7377 12.1381 14.7805 11.8245 14.8158 11.4972C14.8328 11.3407 14.9112 11.1974 15.0339 11.0987C15.1566 11 15.3135 10.9541 15.4701 10.9711C15.6267 10.988 15.7701 11.0664 15.8688 11.189C15.9676 11.3117 16.0135 11.4685 15.9965 11.625C15.9587 11.976 15.9125 12.3121 15.8556 12.6541V12.6601C15.5821 14.2078 14.208 15.5811 12.6591 15.8544H12.6535C12.3111 15.9112 11.9672 15.9582 11.6222 15.9953C11.6008 15.998 11.5793 15.9995 11.5578 16ZM4.4423 15.9956C4.42068 15.9956 4.39908 15.9944 4.3776 15.9919C4.02602 15.9538 3.69005 15.9079 3.34784 15.851H3.3419C1.79336 15.5752 0.419198 14.2018 0.145429 12.6535V12.6476C0.0876124 12.3068 0.0416716 11.9704 0.00354391 11.619C-0.0134063 11.4625 0.0325356 11.3057 0.131263 11.1831C0.22999 11.0605 0.373416 10.9821 0.529987 10.9651C0.686559 10.9482 0.843451 10.9941 0.96615 11.0928C1.08885 11.1914 1.1673 11.3348 1.18425 11.4913C1.21988 11.8189 1.2627 12.1325 1.31551 12.4505C1.40646 12.9602 1.68773 13.4712 2.10557 13.8898C2.52341 14.3083 3.03563 14.5901 3.54567 14.6794C3.86382 14.7322 4.17759 14.7753 4.50542 14.8106C4.65698 14.8262 4.79674 14.8994 4.89579 15.0151C4.99484 15.1308 5.0456 15.2801 5.03757 15.4322C5.02954 15.5843 4.96334 15.7274 4.85266 15.8321C4.74197 15.9367 4.59528 15.9948 4.44292 15.9944L4.4423 15.9956ZM8.12755 12.6816C7.39907 12.6997 5.96803 12.5879 5.50018 12.4755C5.18141 12.4083 4.8817 12.2228 4.65637 11.9648C4.43337 11.7131 4.29318 11.3989 4.25478 11.0649V11.0549C4.23045 10.8141 4.22293 10.5718 4.23228 10.33C4.23228 10.33 4.21447 10.1166 4.25478 9.72932V9.71964C4.28888 9.40167 4.4312 9.10506 4.65794 8.87942C4.88575 8.65138 5.18444 8.50762 5.50487 8.47181C5.97365 8.42214 7.40219 8.39497 8.12787 8.39497C8.85354 8.39497 10.0186 8.42214 10.4877 8.47181C10.8082 8.50757 11.1069 8.65134 11.3347 8.87942C11.5615 9.10514 11.7038 9.40187 11.7378 9.71995V9.72963C11.761 9.9288 11.7728 10.1291 11.7731 10.3296C11.7742 10.5723 11.7625 10.8148 11.7381 11.0562V11.0659C11.6996 11.4001 11.5592 11.7145 11.3359 11.9663C11.11 12.2243 10.8102 12.4099 10.4921 12.477C10.0233 12.5823 8.85604 12.6866 8.12755 12.6816Z" fill="#1A91FF"/>
<path d="M7.95317 7.85106C9.20608 7.85106 10.2218 6.83595 10.2218 5.58373C10.2218 4.33152 9.20608 3.31641 7.95317 3.31641C6.70026 3.31641 5.68457 4.33152 5.68457 5.58373C5.68457 6.83595 6.70026 7.85106 7.95317 7.85106Z" fill="#1A91FF"/>
</svg>
