<svg width="16" height="16" viewBox="0 0 16 16" fill="none" xmlns="http://www.w3.org/2000/svg">
<path d="M15.333 13.332V9.33203H11.333" stroke="white" stroke-linecap="round" stroke-linejoin="round"/>
<path d="M0.666992 2.66797V6.66797H4.66699" stroke="white" stroke-linecap="round" stroke-linejoin="round"/>
<path d="M13.6603 6.00233C13.3222 5.04685 12.7476 4.1926 11.99 3.51927C11.2325 2.84595 10.3167 2.37551 9.32813 2.15183C8.33959 1.92816 7.31049 1.95856 6.33687 2.24018C5.36324 2.5218 4.47682 3.04547 3.76033 3.76233L0.666992 6.669M15.3337 9.33566L12.2403 12.2423C11.5238 12.9592 10.6374 13.4829 9.66379 13.7645C8.69016 14.0461 7.66106 14.0765 6.67252 13.8528C5.68397 13.6292 4.76819 13.1587 4.01064 12.4854C3.25308 11.8121 2.67844 10.9578 2.34033 10.0023" stroke="white" stroke-linecap="round" stroke-linejoin="round"/>
</svg>
