<svg width="10" height="5" viewBox="0 0 10 5" fill="none" xmlns="http://www.w3.org/2000/svg">
<path d="M5.00033 3.25838L1.9128 0.170854C1.685 -0.0569515 1.31565 -0.0569515 1.08785 0.170854C0.860041 0.39866 0.860041 0.768006 1.08785 0.995812L4.58785 4.49581C4.81565 4.72362 5.185 4.72362 5.4128 4.49581L8.9128 0.995812C9.14061 0.768006 9.14061 0.39866 8.9128 0.170854C8.685 -0.0569515 8.31565 -0.0569515 8.08785 0.170854L5.00033 3.25838Z" fill="#646464"/>
<mask id="mask0_2002_5750" style="mask-type:luminance" maskUnits="userSpaceOnUse" x="0" y="0" width="10" height="5">
<path d="M5.00033 3.25838L1.9128 0.170854C1.685 -0.0569515 1.31565 -0.0569515 1.08785 0.170854C0.860041 0.39866 0.860041 0.768006 1.08785 0.995812L4.58785 4.49581C4.81565 4.72362 5.185 4.72362 5.4128 4.49581L8.9128 0.995812C9.14061 0.768006 9.14061 0.39866 8.9128 0.170854C8.685 -0.0569515 8.31565 -0.0569515 8.08785 0.170854L5.00033 3.25838Z" fill="white"/>
</mask>
<g mask="url(#mask0_2002_5750)">
</g>
</svg>
