<svg width="18" height="18" viewBox="0 0 18 18" fill="none" xmlns="http://www.w3.org/2000/svg">
<g clip-path="url(#clip0_179959_3916)">
<path d="M0.75 0.75L17.25 17.25" stroke="#191919" stroke-width="1.5" stroke-linecap="round" stroke-linejoin="round"/>
<path d="M9 15H9.0075" stroke="#191919" stroke-width="1.5" stroke-linecap="round" stroke-linejoin="round"/>
<path d="M6.39746 12.0825C7.15886 11.5416 8.06972 11.251 9.00371 11.251C9.93771 11.251 10.8486 11.5416 11.61 12.0825" stroke="#191919" stroke-width="1.5" stroke-linecap="round" stroke-linejoin="round"/>
<path d="M12.54 8.29504C13.1544 8.59486 13.7288 8.97027 14.25 9.41254" stroke="#191919" stroke-width="1.5" stroke-linecap="round" stroke-linejoin="round"/>
<path d="M3.75 9.4125C4.86156 8.48312 6.1994 7.86466 7.6275 7.62" stroke="#191919" stroke-width="1.5" stroke-linecap="round" stroke-linejoin="round"/>
<path d="M1.06543 6.74997C2.1058 5.83035 3.2987 5.09938 4.59043 4.58997" stroke="#191919" stroke-width="1.5" stroke-linecap="round" stroke-linejoin="round"/>
<path d="M8.03223 3.78755C9.63904 3.65808 11.2555 3.85367 12.785 4.36266C14.3146 4.87165 15.7259 5.68361 16.9347 6.75005" stroke="#191919" stroke-width="1.5" stroke-linecap="round" stroke-linejoin="round"/>
</g>
<defs>
<clipPath id="clip0_179959_3916">
<rect width="18" height="18" fill="white"/>
</clipPath>
</defs>
</svg>
