<svg width="18" height="18" viewBox="0 0 18 18" fill="none" xmlns="http://www.w3.org/2000/svg">
<path d="M9 15H9.0075" stroke="url(#paint0_linear_2002_2794)" stroke-width="1.5" stroke-linecap="round" stroke-linejoin="round"/>
<path d="M6.39746 12.0816C7.15886 11.5406 8.06972 11.25 9.00371 11.25C9.93771 11.25 10.8486 11.5406 11.61 12.0816" stroke="url(#paint1_linear_2002_2794)" stroke-width="1.5" stroke-linecap="round" stroke-linejoin="round"/>
<path d="M3.75 9.41091C5.23242 8.17616 7.1007 7.5 9.03 7.5C10.9593 7.5 12.8276 8.17616 14.31 9.41091" stroke="url(#paint2_linear_2002_2794)" stroke-width="1.5" stroke-linecap="round" stroke-linejoin="round"/>
<path d="M1.06543 6.75192C3.25725 4.81989 6.07865 3.75391 9.00043 3.75391C11.9222 3.75391 14.7436 4.81989 16.9354 6.75192" stroke="url(#paint3_linear_2002_2794)" stroke-width="1.5" stroke-linecap="round" stroke-linejoin="round"/>
<defs>
<linearGradient id="paint0_linear_2002_2794" x1="9.00375" y1="15" x2="9.00375" y2="16" gradientUnits="userSpaceOnUse">
<stop stop-color="#41C728"/>
<stop offset="1" stop-color="#1FC000"/>
</linearGradient>
<linearGradient id="paint1_linear_2002_2794" x1="9.00371" y1="11.25" x2="9.00371" y2="12.0816" gradientUnits="userSpaceOnUse">
<stop stop-color="#41C728"/>
<stop offset="1" stop-color="#1FC000"/>
</linearGradient>
<linearGradient id="paint2_linear_2002_2794" x1="9.03" y1="7.5" x2="9.03" y2="9.41091" gradientUnits="userSpaceOnUse">
<stop stop-color="#41C728"/>
<stop offset="1" stop-color="#1FC000"/>
</linearGradient>
<linearGradient id="paint3_linear_2002_2794" x1="9.00043" y1="3.75391" x2="9.00043" y2="6.75192" gradientUnits="userSpaceOnUse">
<stop stop-color="#41C728"/>
<stop offset="1" stop-color="#1FC000"/>
</linearGradient>
</defs>
</svg>
